<svg width="29" height="25" viewBox="0 0 29 25" fill="none" xmlns="http://www.w3.org/2000/svg">
<path d="M15.4104 23.4874L25.5354 13.3624C28.0229 10.8624 28.3854 6.77493 26.0354 4.16243C25.4461 3.50407 24.7287 2.97278 23.927 2.60103C23.1254 2.22929 22.2564 2.02488 21.3732 2.00032C20.4899 1.97575 19.6109 2.13153 18.7898 2.45814C17.9688 2.78476 17.223 3.27534 16.5979 3.89993L14.6979 5.81243L13.0604 4.16243C10.5604 1.67493 6.47293 1.31243 3.86043 3.66243C3.20206 4.25179 2.67078 4.96919 2.29903 5.7708C1.92728 6.57242 1.72288 7.44141 1.69831 8.32469C1.67375 9.20797 1.82953 10.087 2.15614 10.908C2.48276 11.7291 2.97334 12.4749 3.59793 13.0999L13.9854 23.4874C14.175 23.6752 14.4311 23.7806 14.6979 23.7806C14.9648 23.7806 15.2208 23.6752 15.4104 23.4874V23.4874Z" stroke="#D9D9D9" stroke-width="2" stroke-linecap="round" stroke-linejoin="round"/>
</svg>
