<svg width="9" height="8" viewBox="0 0 9 8" fill="none" xmlns="http://www.w3.org/2000/svg">
<path fill-rule="evenodd" clip-rule="evenodd" d="M8.34402 0.117157C8.50023 0.273367 8.50023 0.526633 8.34402 0.682843L1.14402 7.88284C0.987815 8.03905 0.734549 8.03905 0.578339 7.88284C0.422129 7.72663 0.422129 7.47337 0.578339 7.31716L7.77834 0.117157C7.93455 -0.0390524 8.18781 -0.0390524 8.34402 0.117157Z" fill="white"/>
<path fill-rule="evenodd" clip-rule="evenodd" d="M0.578339 0.117157C0.734549 -0.0390524 0.987815 -0.0390524 1.14402 0.117157L8.34402 7.31716C8.50023 7.47337 8.50023 7.72663 8.34402 7.88284C8.18781 8.03905 7.93455 8.03905 7.77834 7.88284L0.578339 0.682843C0.422129 0.526633 0.422129 0.273367 0.578339 0.117157Z" fill="white"/>
</svg>
