<svg width="29" height="30" viewBox="0 0 29 30" fill="none" xmlns="http://www.w3.org/2000/svg">
<g filter="url(#filter0_d_216_2464)">
<path fill-rule="evenodd" clip-rule="evenodd" d="M8.31703 3.61739C9.65131 2.72585 11.22 2.25 12.8247 2.25H12.8248C14.9766 2.25014 17.0402 3.105 18.5617 4.62655C20.0833 6.14811 20.9382 8.21174 20.9383 10.3635V10.3636C20.9383 11.9683 20.4624 13.537 19.5709 14.8713C19.4144 15.1054 19.2464 15.3305 19.0677 15.5459L23.9914 20.4697C24.2843 20.7626 24.2843 21.2374 23.9914 21.5303C23.6985 21.8232 23.2237 21.8232 22.9308 21.5303L18.007 16.6065C17.3846 17.1232 16.6851 17.5467 15.9296 17.8596C14.4471 18.4737 12.8157 18.6344 11.2418 18.3213C9.66794 18.0082 8.22223 17.2355 7.08753 16.1008C5.95282 14.9661 5.18007 13.5204 4.86701 11.9465C4.55394 10.3726 4.71462 8.74122 5.32872 7.25866C5.94282 5.77609 6.98276 4.50892 8.31703 3.61739ZM12.8247 3.75C11.5166 3.75001 10.238 4.13789 9.15039 4.86459C8.06279 5.5913 7.21511 6.6242 6.71454 7.83268C6.21397 9.04116 6.083 10.3709 6.33819 11.6538C6.59337 12.9368 7.22326 14.1152 8.14819 15.0401C9.07311 15.965 10.2515 16.5949 11.5345 16.8501C12.8174 17.1053 14.1471 16.9743 15.3556 16.4738C16.5641 15.9732 17.597 15.1255 18.3237 14.0379C19.0504 12.9503 19.4383 11.6717 19.4383 10.3636M12.8247 3.75C14.5787 3.75012 16.2608 4.44695 17.5011 5.68721C18.7413 6.92748 19.4382 8.6096 19.4383 10.3636" fill="#C4C4CC"/>
</g>
<defs>
<filter id="filter0_d_216_2464" x="-1.53882" y="0" width="32" height="32" filterUnits="userSpaceOnUse" color-interpolation-filters="sRGB">
<feFlood flood-opacity="0" result="BackgroundImageFix"/>
<feColorMatrix in="SourceAlpha" type="matrix" values="0 0 0 0 0 0 0 0 0 0 0 0 0 0 0 0 0 0 127 0" result="hardAlpha"/>
<feOffset dy="4"/>
<feGaussianBlur stdDeviation="2"/>
<feComposite in2="hardAlpha" operator="out"/>
<feColorMatrix type="matrix" values="0 0 0 0 0 0 0 0 0 0 0 0 0 0 0 0 0 0 0.25 0"/>
<feBlend mode="normal" in2="BackgroundImageFix" result="effect1_dropShadow_216_2464"/>
<feBlend mode="normal" in="SourceGraphic" in2="effect1_dropShadow_216_2464" result="shape"/>
</filter>
</defs>
</svg>
